# xmcd CD database file
#
# Track frame offsets:
#	150
#	10777
#	21247
#	33565
#	46807
#	58146
#	73352
#	84653
#	96800
#	109075
#	122806
#	134114
#	146539
#	162170
#	171773
#	182143
#	190431
#	202059
#
# Disc length: 2858 seconds
#
# Revision: 3
# Processed by: cddbd v1.5.2PL0 Copyright (c) Steve Scherf et al.
# Submitted via: CDex 1.40PlusFr
#
DISCID=0f0b2812
DTITLE=COUNTRY MUSIC COMPILATION - Shot of Country [CD02)
DYEAR=2000
DGENRE=Country
TTITLE0=01- Roger Miller - King of the road
TTITLE1=02- Jim Nesbitt - Running bare
TTITLE2=03- Johnny Cash - I walk the line
TTITLE3=04- George Morgan - Red rose from the blue side of town
TTITLE4=05- Waylon Jennings - Sally was a good old girl
TTITLE5=06- Earl Thomas Conley - The night they drove old dixie down
TTITLE6=07- Ferlin Husky - Country music is there to stay
TTITLE7=08- Johnny Dollar - Big big rolling man
TTITLE8=09- Billie Jo Spears - What i've got in mind
TTITLE9=10- Don Williams - Where do we go from here
TTITLE10=11- Stoney Cooper and Wilma Lee - Big midnight special
TTITLE11=12- Bobby Bare - The year that Clayton Delaney died
TTITLE12=13- Billy Joe Royal - Tulsa
TTITLE13=14- George Jones - The race is on
TTITLE14=15- Patsy Cline - Pick me up on your way down
TTITLE15=16- Willie Nelson - You wouldn't cross the street to say goodbye
TTITLE16=17- Frankie Laine - Mule train
TTITLE17=18- Glen Campbell - By the time I get to Phoenix
EXTD=YEAR: 2000 ID3G: 2
EXTT0=
EXTT1=
EXTT2=
EXTT3=
EXTT4=
EXTT5=
EXTT6=
EXTT7=
EXTT8=
EXTT9=
EXTT10=
EXTT11=
EXTT12=
EXTT13=
EXTT14=
EXTT15=
EXTT16=
EXTT17=
PLAYORDER=
